<svg class="social-icon-fill" width="30" height="30" viewBox="0 0 30 30" fill="none" xmlns="http://www.w3.org/2000/svg">
    <path fill-rule="evenodd" clip-rule="evenodd"
        d="M0.25 15C0.25 6.8538 6.8538 0.25 15 0.25C23.1462 0.25 29.75 6.8538 29.75 15C29.75 23.1462 23.1462 29.75 15 29.75C6.8538 29.75 0.25 23.1462 0.25 15ZM15 1.75C7.68223 1.75 1.75 7.68223 1.75 15C1.75 22.0661 7.28116 27.8403 14.25 28.2291V17.75H10V16.25H14.25V13C14.25 10.3766 16.3766 8.25 19 8.25H20V9.75H19C17.2051 9.75 15.75 11.2051 15.75 13V16.25H20V17.75H15.75V28.2291C22.7188 27.8403 28.25 22.0661 28.25 15C28.25 7.68223 22.3178 1.75 15 1.75Z"
        fill="black" />
</svg>