<svg class="social-icon-fill" width="30" height="30" viewBox="0 0 30 30" fill="none" xmlns="http://www.w3.org/2000/svg">
    <path fill-rule="evenodd" clip-rule="evenodd"
        d="M15 0.25C6.8538 0.25 0.25 6.8538 0.25 15C0.25 23.1462 6.8538 29.75 15 29.75C23.1462 29.75 29.75 23.1462 29.75 15C29.75 6.8538 23.1462 0.25 15 0.25ZM1.75 15C1.75 7.68223 7.68223 1.75 15 1.75C22.3178 1.75 28.25 7.68223 28.25 15C28.25 22.3178 22.3178 28.25 15 28.25C12.8029 28.25 10.7307 27.7152 8.90648 26.7688L13.0553 18.5542C14.9571 20.27 17.8623 20.5629 20.0887 19.102C23.2759 17.0106 24.1112 12.7636 21.9534 9.621C19.3235 5.79083 14.0487 4.7534 10.1642 7.30234C5.38364 10.4393 4.13047 16.811 7.367 21.5247L8.60358 20.6756C5.84293 16.655 6.90949 11.2321 10.9872 8.55645C14.1893 6.45527 18.5489 7.31272 20.7168 10.47C22.3987 12.9196 21.75 16.2177 19.2657 17.8479C17.5017 19.0055 15.1513 18.6702 13.7659 17.1471L15.6695 13.3781L14.3305 12.7019L7.61344 26.0017C4.07676 23.6225 1.75 19.583 1.75 15Z"
        fill="black" />
</svg>